<svg width="813" height="302" viewBox="0 0 813 302" fill="none" xmlns="http://www.w3.org/2000/svg">
<path d="M118.38 99.7582C118.38 113.276 110.697 123.154 97.413 128.223L123.72 154.998H88.1666L66.2877 131.862H26.8276V154.998H0V110.156H77.2271C87.1247 110.156 91.4223 107.297 91.4223 100.798C91.4223 93.7794 86.8642 90.6599 77.0969 90.6599H0L17.9719 68.0442H74.4923C101.841 68.0442 118.38 79.872 118.38 99.7582Z" fill="#FF004C"/>
<path d="M191.055 66.6145C234.292 66.6145 254.869 81.0418 254.869 111.456C254.869 141.87 234.292 156.428 191.055 156.428C147.949 156.428 127.502 142 127.502 111.456C127.502 81.0418 147.819 66.6145 191.055 66.6145ZM191.055 89.2302C162.014 89.2302 154.33 93.9093 154.33 111.456C154.33 129.133 162.144 133.812 191.055 133.812C220.227 133.812 227.911 129.133 227.911 111.456C227.911 93.7794 220.357 89.2302 191.055 89.2302Z" fill="#FF004C"/>
<path d="M328.311 154.998H301.353V126.143L248.219 68.0442H282.73L315.288 103.787L347.064 68.0442H380.013L328.311 126.143V154.998Z" fill="#FF004C"/>
<path d="M492.756 154.998H391.567L407.715 132.382H445.222L420.608 96.8988L379.325 154.998H347.809L403.678 76.3626C407.455 71.1636 412.664 66.6145 420.999 66.6145C429.073 66.6145 434.413 70.9037 438.189 76.3626L492.756 154.998Z" fill="#FF004C"/>
<path d="M579.205 154.998H502.109V68.0442H529.066V132.382H596.526L579.205 154.998Z" fill="#FF004C"/>
<path d="M245.225 300.57H185.449C155.366 300.57 132.966 281.594 132.966 256.249C132.966 231.293 154.715 213.617 185.449 213.617H247.7L230.249 236.232H185.449C170.863 236.232 159.794 245.201 159.794 257.418C159.794 269.766 170.082 277.955 185.449 277.955H218.268V266.387H174.249L190.919 247.54H245.225V300.57Z" fill="#FF004C"/>
<path d="M398.766 300.57H297.576L313.725 277.955H351.232L326.618 242.471L285.335 300.57H253.819L309.688 221.935C313.465 216.736 318.674 212.187 327.009 212.187C335.083 212.187 340.422 216.476 344.199 221.935L398.766 300.57Z" fill="#FF004C"/>
<path d="M562.182 300.57H534.312L520.508 250.14L497.848 292.252C493.81 299.53 489.643 302 481.699 302C473.625 302 469.457 299.53 465.55 292.252L443.411 250.14L429.216 300.57H401.867L424.527 224.275C426.741 216.606 432.341 212.187 439.895 212.187C446.146 212.187 451.095 215.306 454.481 221.285L482.22 272.885L510.089 221.285C513.345 215.306 518.424 212.187 524.675 212.187C532.098 212.187 537.959 216.866 540.042 224.275L562.182 300.57Z" fill="#FF004C"/>
<path d="M598.883 236.232V247.41H667.775L652.147 266.647H598.883V277.955H672.984L655.794 300.57H571.925V213.617H672.854L655.403 236.232H598.883Z" fill="#FF004C"/>
<path d="M760.328 300.57H677.11L694.431 277.955H761.109C766.579 277.955 769.053 276.265 769.053 272.366C769.053 268.336 766.448 266.647 760.849 266.647H713.705C692.477 266.647 680.235 257.029 680.235 240.522C680.235 222.585 692.347 213.617 716.961 213.617H793.146L775.825 236.232H714.877C709.277 236.232 706.672 238.052 706.672 241.821C706.672 245.721 709.277 247.54 714.877 247.54H762.411C784.03 247.54 795.49 256.249 795.49 272.756C795.49 291.862 784.551 300.57 760.328 300.57Z" fill="#FF004C"/>
<path d="M559.864 5.31093L565.744 21.5103C608.24 40.3475 651.09 62.111 675.423 82.7842C683.921 90.0051 702.103 107.314 713.465 124.555C699.999 127.837 684.563 128.151 668.644 124.896C676.288 131.042 684.873 136.749 694.471 141.269C741.669 163.497 792.659 154.076 808.362 120.334C824.066 86.5908 798.602 41.1672 751.402 18.9396C741.804 14.4187 731.949 11.441 722.362 9.47203C736.412 20.789 746.891 34.2994 752.781 48.2539C731.26 49.7419 704.204 47.7545 692.477 45.7135C660.87 40.2129 616.449 20.9781 574.552 0L559.864 5.31093ZM749.219 60.928C768.857 53.8281 790.362 63.0524 799.071 81.6909C790.62 74.1152 778.413 71.3006 767.037 75.4133C750.546 81.3751 742.049 99.6319 748.059 116.191C748.88 118.452 749.93 120.563 751.173 122.511C749.159 113.319 754.211 103.768 763.249 100.501C773.089 96.9431 784.087 102.123 787.673 112.003C791.259 121.884 786.136 132.89 776.296 136.448C775.64 136.685 774.98 136.88 774.317 137.04C774.373 137.047 774.428 137.057 774.484 137.063C754.277 143.139 732.666 132.399 725.345 112.228C717.767 91.3504 728.427 68.4449 749.219 60.928Z" fill="#FF004C"/>
</svg>
